<?xml version="1.0" encoding="UTF-8"?>
<!DOCTYPE svg PUBLIC "-//W3C//DTD SVG 1.1//EN" "http://www.w3.org/Graphics/SVG/1.1/DTD/svg11.dtd">
<!-- Creator: CorelDRAW 2018 (64 Bit Versão de avaliação) -->
<svg xmlns="http://www.w3.org/2000/svg" xml:space="preserve" width="210mm" height="297mm" version="1.1" style="shape-rendering:geometricPrecision; text-rendering:geometricPrecision; image-rendering:optimizeQuality; fill-rule:evenodd; clip-rule:evenodd"
viewBox="0 0 21000 29700"
 xmlns:xlink="http://www.w3.org/1999/xlink"
 enable-background="new 0 0 512 512">
 <defs>
  <style type="text/css">
   <![CDATA[
    .fil1 {fill:#408CCF}
    .fil0 {fill:#408CCF;fill-rule:nonzero}
   ]]>
  </style>
 </defs>
 <g id="Camada_x0020_1">
  <metadata id="CorelCorpID_0Corel-Layer"/>
  <g id="Layer_x0020_1">
   <polygon class="fil0" points="7157.19,10326.87 7157.19,8740.69 8689.92,8740.69 8689.92,10326.87 "/>
   <path class="fil0" d="M11684.68 8444.93l-7522.25 0c-81.67,0 -147.88,-66.21 -147.88,-147.88l0 -2763.62c0,-81.67 66.21,-147.89 147.88,-147.89l7522.25 0c81.67,0 147.88,66.22 147.88,147.89l0 2763.62c0,81.67 -66.21,147.88 -147.88,147.88zm-443.63 -591.52l0 -1876.35 -6634.99 0 0 1876.35 6634.99 0z"/>
   <path class="fil1" d="M10500 21586.51c171.95,0 327.66,69.74 440.35,182.42 112.69,112.69 182.42,268.39 182.42,440.35 0,171.95 -69.73,327.66 -182.42,440.35 -112.69,112.69 -268.4,182.42 -440.35,182.42 -171.96,0 -327.67,-69.73 -440.36,-182.42 -112.69,-112.69 -182.42,-268.4 -182.42,-440.35 0,-171.96 69.73,-327.66 182.42,-440.35 112.69,-112.68 268.4,-182.42 440.36,-182.42zm6698.36 -1482.42l-13396.71 0c-267.47,0 -510.51,109.33 -686.62,285.42 -176.09,176.1 -285.42,419.15 -285.42,686.62l0 2266.29c0,267.47 109.33,510.53 285.42,686.63 176.11,176.1 419.15,285.42 686.62,285.42l13396.71 0c267.47,0 510.52,-109.32 686.62,-285.43 176.1,-176.1 285.43,-419.15 285.43,-686.62l0 -2266.29c0,-267.47 -109.33,-510.52 -285.43,-686.62 -176.1,-176.09 -419.15,-285.42 -686.62,-285.42z"/>
   <path class="fil1" d="M14289.84 15902.03c0,-81.67 66.21,-147.88 147.88,-147.88l781.61 0c81.67,0 147.88,66.21 147.88,147.88l0 781.61c0,81.67 -66.21,147.88 -147.88,147.88l-781.61 0c-81.67,0 -147.88,-66.21 -147.88,-147.88l0 -781.61zm-1379.05 2078.21c81.67,0 147.89,66.21 147.89,147.88l0 781.61c0,81.67 -66.22,147.88 -147.89,147.88l-781.6 0c-81.67,0 -147.88,-66.21 -147.88,-147.88l0 -781.61c0,-81.67 66.21,-147.88 147.88,-147.88l781.6 0zm-9109.13 1828.1l13396.71 0c49.72,0 99.08,2.93 147.88,8.68l0 -8386.95c0,-222.21 -90.81,-424.12 -237.07,-570.38 -146.27,-146.27 -348.18,-237.08 -570.38,-237.08l-12202.56 0c-222.2,0 -424.12,90.81 -570.4,237.08 -146.26,146.26 -237.07,348.17 -237.07,570.38l0 8408.06c88.83,-19.65 180.25,-29.8 272.89,-29.8l0 0.01zm11205.67 -7761.55l0 2763.63c0,81.67 -66.21,147.89 -147.88,147.89l-8843.88 0c-81.67,0 -147.88,-66.22 -147.88,-147.89l0 -2763.63c0,-81.67 66.21,-147.88 147.88,-147.88l8843.88 0c81.67,0 147.88,66.21 147.88,147.88zm-569.59 5933.43l781.6 0c81.67,0 147.88,66.22 147.88,147.89l0 781.6c0,81.67 -66.21,147.89 -147.88,147.89l-781.6 0c-81.67,0 -147.89,-66.22 -147.89,-147.89l0 -781.6c0,-81.67 66.22,-147.89 147.89,-147.89zm-2308.54 -2226.09l781.61 0c81.67,0 147.88,66.22 147.88,147.89l0 781.6c0,81.67 -66.21,147.88 -147.88,147.88l-781.61 0c-81.67,0 -147.88,-66.21 -147.88,-147.88l0 -781.6c0,-81.67 66.21,-147.89 147.88,-147.89zm-2308.53 2226.09l781.59 0c81.67,0 147.88,66.22 147.88,147.89l0 781.6c0,81.67 -66.21,147.89 -147.88,147.89l-781.59 0c-81.67,0 -147.88,-66.22 -147.88,-147.89l0 -781.6c0,-81.67 66.21,-147.89 147.88,-147.89zm0 -2226.09l781.59 0c81.67,0 147.88,66.22 147.88,147.89l0 781.6c0,81.67 -66.21,147.88 -147.88,147.88l-781.59 0c-81.67,0 -147.88,-66.21 -147.88,-147.88l0 -781.6c0,-81.67 66.21,-147.89 147.88,-147.89zm-2308.55 2226.09l781.61 0c81.67,0 147.88,66.22 147.88,147.89l0 781.6c0,81.67 -66.21,147.89 -147.88,147.89l-781.61 0c-81.67,0 -147.88,-66.22 -147.88,-147.89l0 -781.6c0,-81.67 66.21,-147.89 147.88,-147.89zm0 -2226.09l781.61 0c81.67,0 147.88,66.22 147.88,147.89l0 781.6c0,81.67 -66.21,147.88 -147.88,147.88l-781.61 0c-81.67,0 -147.88,-66.21 -147.88,-147.88l0 -781.6c0,-81.67 66.21,-147.89 147.88,-147.89zm-2308.53 2226.09l781.61 0c81.67,0 147.88,66.22 147.88,147.89l0 781.6c0,81.67 -66.21,147.89 -147.88,147.89l-781.61 0c-81.67,0 -147.88,-66.22 -147.88,-147.89l0 -781.6c0,-81.67 66.21,-147.89 147.88,-147.89zm0 -2226.09l781.61 0c81.67,0 147.88,66.22 147.88,147.89l0 781.6c0,81.67 -66.21,147.88 -147.88,147.88l-781.61 0c-81.67,0 -147.88,-66.21 -147.88,-147.88l0 -781.6c0,-81.67 66.21,-147.89 147.88,-147.89z"/>
  </g>
 </g>
</svg>
