<?xml version="1.0" encoding="UTF-8"?>
<!DOCTYPE svg PUBLIC "-//W3C//DTD SVG 1.1//EN" "http://www.w3.org/Graphics/SVG/1.1/DTD/svg11.dtd">
<!-- Creator: CorelDRAW 2018 (64 Bit Versão de avaliação) -->
<svg xmlns="http://www.w3.org/2000/svg" xml:space="preserve" width="210mm" height="297mm" version="1.1" style="shape-rendering:geometricPrecision; text-rendering:geometricPrecision; image-rendering:optimizeQuality; fill-rule:evenodd; clip-rule:evenodd"
viewBox="0 0 21000 29700"
 xmlns:xlink="http://www.w3.org/1999/xlink">
 <defs>
  <style type="text/css">
   <![CDATA[
    .fil0 {fill:#408CCF}
   ]]>
  </style>
 </defs>
 <g id="Camada_x0020_1">
  <metadata id="CorelCorpID_0Corel-Layer"/>
  <g id="_3137791320992">
   <path class="fil0" d="M20306.93 20733.41c78.63,-184.81 237.08,-323.96 430.5,-377.99 497.63,-120.88 987.17,-284.46 1459.06,-483.33l0.44 -1175.68 -1470 -430.5c-189.37,-56.83 -343.62,-195.65 -420.02,-378.01l0 0c-43.57,-89.93 -66.34,-188.78 -66.34,-288.76 0,-99.98 22.77,-198.83 66.38,-288.71 269.82,-438.27 507.38,-900.39 703.58,-1375.52l-829.5 -829.5c-465.04,199.2 -918.01,440.34 -1343.93,714.14 -91.27,45.93 -192.05,70.01 -294.18,70.01 -102.13,0 -202.91,-24.08 -293.99,-70.18l0 0.03c-180.07,-74.17 -318.49,-224.05 -378.01,-409.48l-461.99 -1459.52 -1176 0 -430.5 1470c-56.82,189.34 -195.64,343.59 -378,419.99l0 0.01c-89.93,43.56 -188.78,66.33 -288.76,66.33 -99.98,0 -198.83,-22.77 -288.71,-66.38 -437.77,-266.99 -900.37,-501.21 -1375.79,-693.47l-829.5 829.5c197.26,461.8 433.99,911.92 704.06,1334.25 45.03,91.12 68.61,191.75 68.61,293.75 0,102 -23.58,202.63 -68.89,293.96l-0.02 0.06c-75.98,188.68 -235,332.19 -430.52,388.48 -500.48,119.08 -993.87,278.27 -1470.21,472.71l0 1176c473.08,186.57 963.21,335.5 1460.01,441.08 288.71,77.2 489.88,339.35 489.88,638.64 0,110.56 -27.78,219.5 -80.68,316.58 -269.7,438.45 -506,900.31 -702.92,1375.3l829.5 829.5c486.98,-203.98 960,-452.03 1406.48,-734.68 91.04,-46.22 191.82,-70.3 293.95,-70.3 102.13,0 202.91,24.08 293.99,70.18l0.02 0.01c188.69,75.96 332.2,234.97 388.49,430.49 112.49,485.67 265.3,966.28 451.95,1428.23l1175.56 -0.22c186.48,-472.69 335.38,-962.27 441.42,-1459.75 53.01,-199.28 196.93,-362.57 388.09,-440.75l-0.01 0c89.91,-43.6 188.76,-66.37 288.74,-66.37 99.98,0 198.83,22.77 288.72,66.38 438,265.98 900.09,501.1 1374.99,693.16l829.5 -829.5c-199.19,-466.68 -439.81,-916.87 -713.69,-1343.77 -45.11,-91.79 -68.69,-192.42 -68.69,-294.42 0,-102 23.58,-202.62 68.89,-293.96l-41.96 41.98zm-3465 777c-9.99,-0.07 -20.91,0.2 -31.29,0.2 -1234.98,0 -2236.5,-1001.52 -2236.5,-2236.5 0,-1234.98 1001.52,-2236.5 2236.5,-2236.5 1234.98,0 2236.5,1001.52 2236.5,2236.5 0,10.38 -0.27,21.3 -0.27,31.4 -16.93,1210.4 -994.43,2187.9 -2204.83,2204.83l-0.11 0.07z"/>
   <path class="fil0" d="M11041.65 14406.58c108.59,-255.22 327.41,-447.38 594.52,-522 687.21,-166.93 1363.26,-392.83 2014.93,-667.47l0.61 -1623.59 -2030.05 -594.51c-261.51,-78.49 -474.53,-270.19 -580.04,-522.03l0 0c-60.17,-124.19 -91.61,-260.7 -91.61,-398.77 0,-138.07 31.44,-274.58 91.67,-398.71 372.62,-605.24 700.68,-1243.42 971.63,-1899.57l-1145.52 -1145.52c-642.22,275.09 -1267.76,608.1 -1855.95,986.21 -126.04,63.43 -265.22,96.68 -406.26,96.68 -141.04,0 -280.21,-33.25 -405.99,-96.91l0 0.04c-248.68,-102.43 -439.83,-309.41 -522.03,-565.49l-638 -2015.57 -1624.04 0 -594.51 2030.05c-78.47,261.47 -270.18,474.49 -522.01,580l0 0.01c-124.19,60.15 -260.7,91.6 -398.77,91.6 -138.08,0 -274.59,-31.45 -398.71,-91.67 -604.55,-368.71 -1243.4,-692.16 -1899.94,-957.67l-1145.53 1145.53c272.41,637.73 599.33,1259.34 972.3,1842.57 62.18,125.84 94.75,264.81 94.75,405.67 0,140.86 -32.57,279.83 -95.14,405.95l-0.03 0.08c-104.92,260.57 -324.53,458.75 -594.54,536.49 -691.15,164.45 -1372.52,384.28 -2030.33,652.8l0 1624.04c653.31,257.65 1330.17,463.32 2016.25,609.12 398.7,106.62 676.51,468.64 676.51,881.96 0,152.68 -38.36,303.12 -111.42,437.19 -372.45,605.49 -698.77,1243.31 -970.72,1899.27l1145.53 1145.52c672.51,-281.69 1325.74,-624.24 1942.33,-1014.58 125.72,-63.83 264.9,-97.08 405.94,-97.08 141.04,0 280.21,33.25 405.99,96.91l0.03 0.02c260.58,104.9 458.76,324.49 536.5,594.5 155.34,670.7 366.37,1334.41 624.13,1972.36l1623.43 -0.3c257.53,-652.78 463.16,-1328.88 609.6,-2015.89 73.2,-275.21 271.95,-500.71 535.94,-608.67l-0.01 0c124.16,-60.21 260.67,-91.66 398.74,-91.66 138.07,0 274.58,31.45 398.72,91.67 604.87,367.31 1243.01,692.01 1898.84,957.24l1145.53 -1145.52c-275.08,-644.48 -607.37,-1266.19 -985.6,-1855.73 -62.29,-126.76 -94.86,-265.73 -94.86,-406.59 0,-140.86 32.57,-279.81 95.14,-405.95l-57.95 57.97zm-4785.11 1073.03c-13.79,-0.1 -28.87,0.27 -43.21,0.27 -1705.49,0 -3088.57,-1383.08 -3088.57,-3088.57 0,-1705.48 1383.08,-3088.57 3088.57,-3088.57 1705.49,0 3088.57,1383.09 3088.57,3088.57 0,14.34 -0.37,29.42 -0.37,43.37 -23.38,1671.54 -1373.29,3021.45 -3044.84,3044.83l-0.15 0.1z"/>
  </g>
 </g>
</svg>
