<?xml version="1.0" encoding="UTF-8"?>
<!DOCTYPE svg PUBLIC "-//W3C//DTD SVG 1.1//EN" "http://www.w3.org/Graphics/SVG/1.1/DTD/svg11.dtd">
<!-- Creator: CorelDRAW 2018 (64 Bit Versão de avaliação) -->
<svg xmlns="http://www.w3.org/2000/svg" xml:space="preserve" width="210mm" height="297mm" version="1.1" style="shape-rendering:geometricPrecision; text-rendering:geometricPrecision; image-rendering:optimizeQuality; fill-rule:evenodd; clip-rule:evenodd"
viewBox="0 0 21000 29700"
 xmlns:xlink="http://www.w3.org/1999/xlink"
 enable-background="new 0 0 500 500">
 <defs>
  <style type="text/css">
   <![CDATA[
    .fil0 {fill:#408CCF}
   ]]>
  </style>
 </defs>
 <g id="Camada_x0020_1">
  <metadata id="CorelCorpID_0Corel-Layer"/>
  <g id="_3137788887552">
   <path class="fil0" d="M2005.63 21928.7c0,782.16 633.58,1415.67 1415.67,1415.67l14157.4 0c782.16,0 1415.67,-633.51 1415.67,-1415.67l0 -10618.06c0,-782.16 -633.51,-1415.74 -1415.67,-1415.74l-2831.5 0 0 -2123.6c0,-782.12 -633.54,-1415.67 -1415.74,-1415.67l-5662.87 0c-782.2,0 -1415.74,633.58 -1415.74,1415.67l0 2123.6 -2831.51 0c-782.11,0 -1415.67,633.58 -1415.67,1415.74l0 10618.06 -0.04 0zm10971.95 -12033.85l-4955.11 0 0 -990.83c0,-431.75 346.9,-778.77 778.77,-778.77l3397.54 0c431.82,0 778.77,347.06 778.77,778.77l0 990.83 0.03 0zm-5946.08 4955.13l1698.87 0 0 -1698.8c0,-431.75 346.79,-778.77 778.7,-778.77l1981.95 0.01c431.63,0 778.61,347.07 778.61,778.77l0.01 1698.79 1698.74 0c431.83,0 778.82,346.97 778.82,778.77l0 1981.89c0,431.66 -346.98,778.58 -778.82,778.58l-1698.74 -0.02 0 1698.99c0,431.64 -346.97,778.58 -778.61,778.58l-1981.97 0c-431.87,0 -778.7,-346.94 -778.7,-778.58l0 -1698.99 -1698.86 0c-431.87,0 -778.7,-346.9 -778.7,-778.58l0 -1981.89c0.05,-431.78 346.83,-778.75 778.7,-778.75z"/>
  </g>
 </g>
</svg>
