<?xml version="1.0" encoding="UTF-8"?>
<!DOCTYPE svg PUBLIC "-//W3C//DTD SVG 1.1//EN" "http://www.w3.org/Graphics/SVG/1.1/DTD/svg11.dtd">
<!-- Creator: CorelDRAW 2018 (64 Bit Versão de avaliação) -->
<svg xmlns="http://www.w3.org/2000/svg" xml:space="preserve" width="210mm" height="297mm" version="1.1" style="shape-rendering:geometricPrecision; text-rendering:geometricPrecision; image-rendering:optimizeQuality; fill-rule:evenodd; clip-rule:evenodd"
viewBox="0 0 21000 29700"
 xmlns:xlink="http://www.w3.org/1999/xlink"
 enable-background="new 0 0 512 512">
 <defs>
  <style type="text/css">
   <![CDATA[
    .fil0 {fill:#408CCF}
   ]]>
  </style>
 </defs>
 <g id="Camada_x0020_1">
  <metadata id="CorelCorpID_0Corel-Layer"/>
  <g id="window">
   <path class="fil0" d="M4501.13 13160.9l5182.21 0 0 -4962.38 -5182.21 0 0 4962.38zm297.51 -4677.49l4587.19 0 0 4392.56 -4587.19 0 0 -4392.56z"/>
   <path class="fil0" d="M11316.18 13160.9l5182.69 0 0 -4962.38 -5182.69 0 0 4962.38zm297.5 -4677.49l4587.63 0 0 4392.56 -4587.63 0 0 -4392.56z"/>
   <path class="fil0" d="M16498.87 14724.42l-5182.69 0 0 4962.85 5182.69 0 0 -4962.85zm-297.51 4677.96l-4587.68 0 0 -4393.11 4587.63 0 0 4393.11 0.05 0z"/>
   <path class="fil0" d="M9683.34 14724.42l-5182.21 0 0 4962.85 5182.21 0 0 -4962.85zm-297.51 4677.96l-4587.19 0 0 -4393.11 4587.19 0 0 4393.11z"/>
   <path class="fil0" d="M18309.01 21702.11c142.17,-146.24 229.9,-341.7 229.9,-556.76 0,-451.47 -383.55,-818.75 -854.97,-818.75l-219.94 0.02 0 -6241.53 0 -284.89 0 -6241.06 460.96 0c338.54,0 613.95,-263.76 613.95,-587.9 0,-324.18 -275.4,-587.91 -613.95,-587.91l-14849.97 0.02c-338.5,0 -613.94,263.76 -613.94,587.9 0,324.15 275.44,587.91 613.94,587.91l461.01 -0.02 0 6241.05 0 284.89 0 6241.48 -219.94 0.01c-471.47,0 -855.01,367.28 -855.01,818.75 0,215.09 87.77,410.52 229.9,556.76 -376.44,85.67 -657.61,409.57 -657.61,795.84 0,451.47 383.57,818.75 855.01,818.75l15223.27 -0.03c471.52,0 855.04,-367.28 855.04,-818.75 0,-386.25 -281.14,-710.11 -657.65,-795.78zm-15234.02 -14427.86c-174.49,0 -316.43,-135.95 -316.43,-303.01 0,-167.09 141.93,-303.02 316.43,-303.02l14850.02 0.02c174.49,0 316.43,135.91 316.43,303.01 0,167.09 -141.97,303.02 -316.43,303.02l-14850.02 -0.02zm7573.51 6525.95l0 -6241.06 6518.02 0 0 6241.05 -6518.02 0.01zm6518.02 284.89l0 6241.48 -6518.02 0 0 -6241.48 6518.02 0zm-13333.01 -284.89l0 -6241.06 6517.49 0 0 6241.05 -6517.49 0.01zm6517.49 284.89l0 6241.48 -6517.49 0 0 -6241.48 6517.49 0zm-7034.94 6526.37l219.94 0 0 0 6815.04 0 297.51 0 6815.48 0 0 0 219.96 0c307.34,0 557.45,239.5 557.45,533.86 0,294.35 -250.11,533.85 -557.45,533.85l-14367.93 -0.01c-307.38,0 -557.5,-239.5 -557.5,-533.86 0,-294.35 250.07,-533.84 557.5,-533.84zm14795.56 2420.33l-15223.27 0c-307.38,0 -557.51,-239.47 -557.51,-533.86 0,-294.34 250.12,-533.85 557.51,-533.85l427.71 0.01 14367.93 0 427.66 0c307.43,0 557.54,239.5 557.54,533.86 -0.03,294.41 -250.15,533.84 -557.57,533.84z"/>
  </g>
 </g>
</svg>
