<?xml version="1.0" encoding="UTF-8"?>
<!DOCTYPE svg PUBLIC "-//W3C//DTD SVG 1.1//EN" "http://www.w3.org/Graphics/SVG/1.1/DTD/svg11.dtd">
<!-- Creator: CorelDRAW 2018 (64 Bit Versão de avaliação) -->
<svg xmlns="http://www.w3.org/2000/svg" xml:space="preserve" width="210mm" height="297mm" version="1.1" style="shape-rendering:geometricPrecision; text-rendering:geometricPrecision; image-rendering:optimizeQuality; fill-rule:evenodd; clip-rule:evenodd"
viewBox="0 0 21000 29700"
 xmlns:xlink="http://www.w3.org/1999/xlink"
 enable-background="new 0 0 512 512"
 xmlns:cc="http://creativecommons.org/ns#"
 xmlns:dc="http://purl.org/dc/elements/1.1/"
 xmlns:inkscape="http://www.inkscape.org/namespaces/inkscape"
 xmlns:rdf="http://www.w3.org/1999/02/22-rdf-syntax-ns#"
 xmlns:sodipodi="http://sodipodi.sourceforge.net/DTD/sodipodi-0.dtd"
 xmlns:svg="http://www.w3.org/2000/svg">
 <defs>
  <style type="text/css">
   <![CDATA[
    .fil3 {fill:none}
    .fil2 {fill:black}
    .fil0 {fill:#408CCF}
    .fil1 {fill:black;fill-rule:nonzero}
   ]]>
  </style>
 </defs>
 <g id="Camada_x0020_1">
  <metadata id="CorelCorpID_0Corel-Layer"/>
  <g id="_3137544672688">
   <g id="layer1">
    <path id="path3796" class="fil0" d="M12164.27 7844.57c-42.94,81.9 -89.71,116.1 -145.11,141.39 -180.16,82.2 -345.38,120.08 -556.31,154.02 -322.32,51.88 -669.47,137.56 -986.81,227.91 -405.95,115.56 -804.31,271.93 -1199.67,438.92 -358.15,151.26 -711.91,321.44 -1059.37,510.66 -330.54,180 -654.93,382.33 -973.92,595.06 -271.72,181.2 -538.05,375.47 -799.79,580.3 -268.6,210.22 -532.45,432.18 -790.09,664.71 -294.99,266.22 -580.12,547.82 -864.28,833.51 -164.73,165.63 -330.91,331.22 -486.96,510.68 -105.31,121.13 -95.17,140.4 -232.19,261.65 -105.02,92.95 -233.26,79.68 -351.52,6.33 -118.26,-73.35 -314.43,-225.79 -314.43,-225.79 0,0 235.51,-230.36 420.85,-398.82 -3.39,0.71 -8.13,3.65 -11.27,4.23 -117.79,21.26 -269.38,-36.24 -386.99,-59.08 -71.42,-13.88 -145.62,-17.94 -217.68,-12.68 -156.81,11.46 -310.35,59.21 -464.4,99.2 -759.03,197.05 -1517.64,409.19 -2260.64,692.12 -535.29,203.84 -1065.09,437.69 -1578.59,721.69 -170.78,94.43 -343.86,189.65 -496.65,327.06 -140.88,126.74 -272.5,276.5 -378.92,451.58 -100.48,165.33 -169.84,361.79 -238.65,552.87 -64.2,178.32 -131.46,357.53 -161.24,550.76 -46.33,300.74 -23.98,613.28 -22.58,920.05 1.54,330.5 9.09,662.84 33.88,991.76 25.41,337.32 62.89,629.98 74.16,968.6 2.36,70.84 1.42,186.51 -20.96,251.1 -16.85,48.6 -20.42,58.65 -32.24,109.72 -10.67,46.04 6.49,97.16 20.94,141.39 34.62,105.89 89.36,201.34 151.59,282.75 31.11,40.73 76.06,59.62 108.02,99.18 46.63,57.73 73.68,139.32 119.33,198.38 96.93,125.33 203.17,242.76 324.1,324.96 170.99,116.23 363.5,172.45 551.45,227.88 202.41,59.72 410.79,89.56 617.59,111.87 143.74,15.49 265.81,35.73 432.12,14.75 118.96,-2.91 100.06,-1.56 208,-4.21 -88.15,-330.64 -137.06,-687.22 -137.06,-1057.21 0,-1769.61 1097.12,-3203.25 2449.33,-3203.25 1352.21,0 2447.7,1433.64 2447.7,3203.25 0,325.94 -37.3,640.59 -106.42,936.92 77.33,-1.71 62.39,-0.25 145.12,-2.12 5373.01,-85.62 8147.21,-203.45 12220.76,-282.75 71.59,-1.4 140.65,-4.44 211.22,-6.33 -41.83,-234.69 -64.49,-478.76 -64.49,-730.12 0,-1769.61 1095.49,-3203.25 2447.71,-3203.25 1352.21,0 2449.3,1433.64 2449.3,3203.25 0,110.59 -4.54,219.36 -12.89,327.09 73.78,-16.59 144.92,-46.25 212.84,-86.52 142.05,-84.27 269.59,-210.35 390.21,-339.74 130.1,-139.58 247.87,-298.1 356.36,-466.36 68.37,-106.04 155.78,-205.93 183.82,-339.74 35.4,-168.88 -25.33,-130.39 -32.25,-525.44 -10.92,-622.7 0.45,-1246.11 -32.26,-1867.51 -12.97,-246.33 -16.69,-526.84 -64.49,-736.45 -16.79,-73.58 -70.56,-145.57 -108.04,-204.68 -34.52,-54.44 -102.35,-64.67 -108.02,-135.06 -21.61,-267.59 -23.91,-547.18 -33.88,-820.85 -6.41,-176.58 1.31,-353.7 -9.67,-529.65 -1.33,11.82 -3.7,24.3 -6.45,35.86 -13.67,57.7 -63.87,88 -85.46,141.39 -22.92,56.71 -35.34,120.33 -43.53,183.58 -15.99,123.34 -15.54,250.64 -11.29,375.62 4.45,130.65 30.95,257.9 38.69,388.26 4.9,82.36 30.52,173.57 4.84,249.01 -19.23,56.56 -64.3,96.65 -108.02,120.29 -85.24,46.01 -184.26,42.44 -275.74,27.43 -94.45,-15.51 -189.22,-56.3 -270.9,-120.28 -160.81,-126.05 -279.38,-327.75 -411.17,-502.24 -216.14,-286.15 -435.2,-571.78 -620.78,-892.59 -47.39,-81.92 -110.75,-160.43 -124.17,-261.67 -11.64,-87.97 2.46,-188.83 41.93,-261.65 75.82,-139.91 217.19,-193.88 335.39,-268 139.85,-87.69 287.26,-162.49 438.58,-206.8 109.56,-32.08 223.13,-41.22 335.39,-42.21 108.52,-0.95 219.74,-3.01 324.12,35.88 95.34,35.55 194.21,85.65 264.42,177.25 9.34,12.17 18.18,26.16 25.8,40.09 -69.33,-215.55 -173.25,-405.38 -275.71,-597.18 -19.86,-9.51 -245.57,-119.08 -370.87,-158.25 -90.51,-28.28 -259.61,-27.44 -259.61,-27.44 0,0 -218.77,-414.98 -340.23,-609.84 -147.6,-236.79 -303.58,-464.11 -470.83,-677.36 -182.18,-232.27 -375.35,-452.45 -578.87,-652.05 -201.24,-197.33 -632.09,-538.1 -632.09,-538.1l354.74 -230c-52.77,-76.38 19.81,-274.41 -35.48,-362.96 -41.92,-67.15 -112.07,-67.18 -199.93,-69.63 -237.88,-6.66 -460.79,-23.53 -698.2,-44.3 -304.25,-26.65 -605.47,-89.25 -907.81,-141.39 -299.7,-51.71 -597.63,-127.79 -898.13,-170.92 -621.64,-89.27 -1245.77,-144.3 -1870.44,-183.6 -684.25,-43.03 -1371.16,-28.61 -2055.87,-56.97 -256.04,-10.61 -511.71,-24.67 -767.53,-42.21 -227.24,-15.57 -453.05,-64.06 -680.46,-56.96zm1783.38 799.74c0,0 501.06,0.97 751.4,14.78 361.04,19.93 722.02,57.32 1081.96,99.17 368.35,42.85 736.78,88.03 1102.9,156.17 266.4,49.56 543.65,111.38 794.95,183.58 60.21,17.3 144.42,67.09 146.74,147.71 14.19,496.04 16.49,968.21 20.96,1451.8 4.74,516.53 4.84,1548.87 4.84,1548.87 0,0 -1337.28,13.96 -2005.9,29.56 -726.46,16.92 -2178.42,69.62 -2178.42,69.62l280.57 -3701.26zm-1178.71 8.45c0,0 -172.02,1248.94 -280.57,1867.51 -114.28,651.28 -390.21,1939.25 -390.21,1939.25 0,0 -800.1,44.79 -1199.65,84.4 -740.37,73.43 -1479.4,173.01 -2217.14,282.78 -278.09,41.37 -790.09,92.85 -790.09,92.85 0,0 2.59,-265.53 -25.8,-390.41 -28.51,-125.38 -140.28,-346.04 -140.28,-346.04l425.69 -2243.14c0,0 479,-272.47 725.6,-381.93 382.64,-169.84 774.3,-301.89 1167.41,-424.14 396.86,-123.42 797.88,-233.19 1201.27,-312.31 315.37,-61.86 633.48,-93.58 951.36,-126.61 190.74,-19.83 572.41,-42.21 572.41,-42.21zm5704.86 713.25c0,0 350.44,111.07 519.21,192.02 236.26,113.32 469.74,242.99 686.89,409.37 271.6,208.1 526.1,458.52 762.7,730.12 161,184.82 329.81,370.13 443.43,607.74 100.47,210.17 49.04,200.65 -98.37,291.2 -306.82,188.45 -648.49,261.11 -978.75,360.85 -315.89,95.37 -956.2,225.79 -956.2,225.79l-378.91 -2817.09zm-10571.23 715.34c-114.61,613.51 -279.44,1275.44 -395.05,1888.62 0,0 -178.3,-53.72 -264.44,-42.21 -73.93,9.87 -209.39,67.78 -307.99,135.06 -86.02,58.67 -189.46,145.21 -264.43,225.78 -80.81,86.8 -173.5,241.69 -211.24,369.27 -54.78,185.27 0,535.98 0,535.98 0,0 -214.11,25.42 -351.52,44.33 -136.65,18.81 -411.17,42.19 -411.17,42.19 0,0 133.31,-725.17 227.37,-1076.19 63.57,-237.33 227.35,-694.24 227.35,-694.24 0,0 200.91,-256.23 312.81,-367.18 214.44,-212.56 447.91,-392.24 682.07,-565.53 245.57,-181.74 756.24,-495.88 756.24,-495.88zm-6985.14 3380.5c38.26,-1.27 75.41,4.42 108.04,29.56 31.98,24.63 56.14,80.29 53.2,128.7 -5.09,83.74 -74.19,138.64 -119.31,198.36 -149.62,198.04 -330.01,350.1 -496.64,523.34 -233.2,242.43 -456.49,502.98 -703.03,721.67 -106.97,94.89 -215.11,191.44 -335.4,253.23 -106.63,54.77 -222.02,77.53 -335.39,99.17 -210.93,40.28 -423.75,60.77 -636.91,56.97 -76.03,-1.36 -163.28,26.18 -227.35,-27.44 -42.2,-35.29 -43.92,-120.36 -75.78,-170.92 -48.79,-77.35 -112.21,-139.29 -174.15,-198.35 -33.97,-32.39 -100.79,-30.22 -108.04,-84.4 -21.65,-161.86 152.5,-262.44 238.64,-381.95 80.54,-111.71 150.22,-254.5 259.61,-310.19 50.39,-25.65 108.62,16.25 161.24,0 133.37,-41.19 241.57,-170.31 367.65,-240.57 158.39,-88.28 323.45,-157.34 486.96,-227.91 164.61,-71.02 329.5,-146.57 498.25,-198.35 149.42,-45.84 300.79,-74.29 453.08,-99.18 129.22,-21.1 260.12,-35.11 390.23,-42.18 63.03,-3.45 131.33,-27.41 195.1,-29.56zm18891.48 2705.26c-1182.51,0 -2141.34,1254.79 -2141.34,2802.31 0,1547.5 958.83,2802.32 2141.34,2802.32 1182.49,0 2141.33,-1254.82 2141.33,-2802.32 0,-1547.52 -958.84,-2802.31 -2141.33,-2802.31zm-17301.6 84.4c-1182.51,0 -2141.33,1254.82 -2141.33,2802.31 0,1547.52 958.82,2802.32 2141.33,2802.32 1182.49,0 2139.71,-1254.8 2139.71,-2802.32 0,-1547.49 -957.22,-2802.31 -2139.71,-2802.31zm17301.6 679.48c860.04,0 1557.62,912.91 1557.62,2038.43 0,1125.53 -697.58,2038.43 -1557.62,2038.43 -860.05,0 -1556.03,-912.9 -1556.03,-2038.43 0,-1125.52 695.98,-2038.43 1556.03,-2038.43zm-17301.6 84.4c860.05,0 1556.01,912.91 1556.01,2038.43 0,1125.53 -695.96,2038.43 -1556.01,2038.43 -860.05,0 -1557.63,-912.9 -1557.63,-2038.43 0,-1125.52 697.58,-2038.43 1557.63,-2038.43z"/>
   </g>
  </g>
  <g id="_3137544664784">
   <g id="Layer_x0020_1">
    <polygon class="fil1" points="59273.72,3959.45 59273.72,2869.69 60326.76,2869.69 60326.76,3959.45 "/>
    <path class="fil1" d="M62384.26 2666.49l-5168.04 0c-56.11,0 -101.6,-45.49 -101.6,-101.6l0 -1898.7c0,-56.11 45.49,-101.6 101.6,-101.6l5168.04 0c56.11,0 101.6,45.49 101.6,101.6l0 1898.7c0,56.11 -45.49,101.6 -101.6,101.6zm-304.79 -406.39l0 -1289.12 -4558.46 0 0 1289.12 4558.46 0z"/>
    <path class="fil2" d="M61570.34 11695.2c118.14,0 225.12,47.91 302.54,125.33 77.42,77.42 125.33,184.39 125.33,302.53 0,118.14 -47.91,225.12 -125.33,302.54 -77.42,77.42 -184.4,125.33 -302.54,125.33 -118.14,0 -225.12,-47.91 -302.54,-125.33 -77.42,-77.42 -125.33,-184.4 -125.33,-302.54 0,-118.14 47.91,-225.11 125.33,-302.53 77.42,-77.42 184.4,-125.33 302.54,-125.33zm4602 -1018.47l-9203.99 0c-183.76,0 -350.74,75.11 -471.73,196.09 -120.98,120.99 -196.09,287.97 -196.09,471.73l0 1557.02c0,183.76 75.11,350.75 196.09,471.74 120.99,120.98 287.97,196.09 471.73,196.09l9203.99 0c183.76,0 350.75,-75.11 471.73,-196.1 120.99,-120.99 196.1,-287.97 196.1,-471.73l0 -1557.02c0,-183.76 -75.11,-350.74 -196.1,-471.73 -120.98,-120.98 -287.97,-196.09 -471.73,-196.09z"/>
    <path class="fil2" d="M64174.09 7789.77c0,-56.11 45.49,-101.6 101.6,-101.6l536.99 0c56.11,0 101.6,45.49 101.6,101.6l0 536.99c0,56.11 -45.49,101.6 -101.6,101.6l-536.99 0c-56.11,0 -101.6,-45.49 -101.6,-101.6l0 -536.99zm-947.45 1427.8c56.11,0 101.6,45.49 101.6,101.6l0 536.99c0,56.11 -45.49,101.6 -101.6,101.6l-536.99 0c-56.11,0 -101.6,-45.49 -101.6,-101.6l0 -536.99c0,-56.11 45.49,-101.6 101.6,-101.6l536.99 0zm-6258.28 1255.97l9203.99 0c34.16,0 68.07,2.01 101.6,5.96l0 -5762.12c0,-152.66 -62.39,-291.38 -162.88,-391.87 -100.49,-100.49 -239.21,-162.88 -391.87,-162.88l-8383.57 0c-152.66,0 -291.38,62.39 -391.88,162.88 -100.49,100.49 -162.88,239.21 -162.88,391.87l0 5776.62c61.03,-13.5 123.84,-20.47 187.49,-20.47l0 0.01zm7698.67 -5332.45l0 1898.71c0,56.11 -45.49,101.6 -101.6,101.6l-6076.04 0c-56.11,0 -101.6,-45.49 -101.6,-101.6l0 -1898.71c0,-56.11 45.49,-101.6 101.6,-101.6l6076.04 0c56.11,0 101.6,45.49 101.6,101.6zm-391.33 4076.47l536.99 0c56.11,0 101.6,45.49 101.6,101.6l0 536.99c0,56.11 -45.49,101.6 -101.6,101.6l-536.99 0c-56.11,0 -101.6,-45.49 -101.6,-101.6l0 -536.99c0,-56.11 45.49,-101.6 101.6,-101.6zm-1586.04 -1529.4l536.99 0c56.11,0 101.6,45.49 101.6,101.6l0 536.99c0,56.11 -45.49,101.6 -101.6,101.6l-536.99 0c-56.11,0 -101.6,-45.49 -101.6,-101.6l0 -536.99c0,-56.11 45.49,-101.6 101.6,-101.6zm-1586.04 1529.4l536.98 0c56.11,0 101.6,45.49 101.6,101.6l0 536.99c0,56.11 -45.49,101.6 -101.6,101.6l-536.98 0c-56.11,0 -101.6,-45.49 -101.6,-101.6l0 -536.99c0,-56.11 45.49,-101.6 101.6,-101.6zm0 -1529.4l536.98 0c56.11,0 101.6,45.49 101.6,101.6l0 536.99c0,56.11 -45.49,101.6 -101.6,101.6l-536.98 0c-56.11,0 -101.6,-45.49 -101.6,-101.6l0 -536.99c0,-56.11 45.49,-101.6 101.6,-101.6zm-1586.05 1529.4l536.99 0c56.11,0 101.6,45.49 101.6,101.6l0 536.99c0,56.11 -45.49,101.6 -101.6,101.6l-536.99 0c-56.11,0 -101.6,-45.49 -101.6,-101.6l0 -536.99c0,-56.11 45.49,-101.6 101.6,-101.6zm0 -1529.4l536.99 0c56.11,0 101.6,45.49 101.6,101.6l0 536.99c0,56.11 -45.49,101.6 -101.6,101.6l-536.99 0c-56.11,0 -101.6,-45.49 -101.6,-101.6l0 -536.99c0,-56.11 45.49,-101.6 101.6,-101.6zm-1586.04 1529.4l536.99 0c56.11,0 101.6,45.49 101.6,101.6l0 536.99c0,56.11 -45.49,101.6 -101.6,101.6l-536.99 0c-56.11,0 -101.6,-45.49 -101.6,-101.6l0 -536.99c0,-56.11 45.49,-101.6 101.6,-101.6zm0 -1529.4l536.99 0c56.11,0 101.6,45.49 101.6,101.6l0 536.99c0,56.11 -45.49,101.6 -101.6,101.6l-536.99 0c-56.11,0 -101.6,-45.49 -101.6,-101.6l0 -536.99c0,-56.11 45.49,-101.6 101.6,-101.6z"/>
   </g>
   <rect class="fil3" x="52900.48" y="-1602.87" width="17339.72" height="17339.72"/>
  </g>
 </g>
</svg>
