<?xml version="1.0" encoding="UTF-8"?>
<!DOCTYPE svg PUBLIC "-//W3C//DTD SVG 1.1//EN" "http://www.w3.org/Graphics/SVG/1.1/DTD/svg11.dtd">
<!-- Creator: CorelDRAW 2018 (64 Bit Versão de avaliação) -->
<svg xmlns="http://www.w3.org/2000/svg" xml:space="preserve" width="210mm" height="297mm" version="1.1" style="shape-rendering:geometricPrecision; text-rendering:geometricPrecision; image-rendering:optimizeQuality; fill-rule:evenodd; clip-rule:evenodd"
viewBox="0 0 21000 29700"
 xmlns:xlink="http://www.w3.org/1999/xlink"
 enable-background="new -0.9 -0.9 31 29">
 <defs>
  <style type="text/css">
   <![CDATA[
    .fil0 {fill:#408CCF}
   ]]>
  </style>
 </defs>
 <g id="Camada_x0020_1">
  <metadata id="CorelCorpID_0Corel-Layer"/>
  <path class="fil0" d="M18360.39 22682.15c-808.36,845.99 -2136.57,845.99 -2944.93,0l-6120.76 -6405.72 2713.81 -2840.17 230.9 -241.64 6120.76 6405.72c808.58,845.99 808.58,2235.81 0.22,3081.81zm-6120.76 -8581.24c-346.57,362.7 -1674.56,1752.52 -2020.91,2114.99 115.45,120.82 635.08,664.64 1270.38,1329.52l2020.9 -2114.99c-635.29,-664.65 -1154.92,-1208.7 -1270.37,-1329.52zm5658.75 5982.72l-4157.48 -4351.03 -2020.9 2114.99c1674.56,1752.52 4157.47,4351.03 4157.47,4351.03 577.47,604.35 1443.66,604.35 2020.91,0 577.46,-604.12 577.46,-1571.16 0,-2114.99zm-6755.84 -9185.58l-750.75 785.7 1385.82 1450.34 -2482.91 2598.51 -1443.44 -1510.87 0 0c-519.63,-302.17 -1212.55,-241.64 -1674.56,241.65 -346.57,362.7 -462.02,846 -346.57,1329.52 115.45,302.18 57.84,664.65 -173.28,906.52 -288.73,302.18 -808.36,302.18 -1154.93,0l-2252.02 -2356.86c-288.73,-302.18 -288.73,-846 0,-1208.7 231.12,-241.42 635.52,-301.94 924.03,-120.59l0 0c404.18,60.52 866.2,-60.53 1212.55,-362.7 462.01,-483.53 519.63,-1208.7 173.28,-1752.52l115.45 -120.83 0 0 2136.57 -2236.04 230.9 -241.65 750.74 -785.46c462.02,241.64 866.2,120.82 1270.38,-181.35 404.18,-302.18 1501.27,-1148.17 3349.11,-906.53 1905.46,181.35 3002.55,1752.52 3002.55,1752.52l-404.18 423c-5023.67,-664.65 -3868.74,2296.34 -3868.74,2296.34z"/>
 </g>
</svg>
